<svg width="160" height="160" viewBox="0 0 160 160" fill="none" xmlns="http://www.w3.org/2000/svg">
<g id="messenger" clip-path="url(#clip0)">
<g id="messenger_2">
<g id="Facebook_Messenger_logo_2020 1" clip-path="url(#clip1)">
<path id="Vector" d="M80 0C34.94 0 0 33.02 0 77.6C0 100.92 9.56 121.08 25.12 135C26.42 136.16 27.22 137.8 27.26 139.56L27.7 153.8C27.84 158.34 32.52 161.3 36.68 159.46L52.56 152.46C53.9 151.86 55.42 151.76 56.84 152.14C64.14 154.14 71.9 155.22 80 155.22C125.06 155.22 160 122.2 160 77.62C160 33.04 125.06 0 80 0Z" fill="url(#paint0_radial)"/>
<path id="Vector_2" d="M31.9601 100.3L55.4601 63.02C59.2001 57.08 67.2001 55.62 72.8201 59.82L91.5201 73.84C93.2401 75.12 95.6001 75.12 97.3001 73.82L122.54 54.66C125.9 52.1 130.3 56.14 128.06 59.72L104.54 96.98C100.8 102.92 92.8001 104.38 87.1801 100.18L68.4801 86.16C66.7601 84.88 64.4001 84.88 62.7001 86.18L37.4601 105.34C34.1001 107.9 29.7001 103.88 31.9601 100.3Z" fill="white"/>
</g>
</g>
</g>
<defs>
<radialGradient id="paint0_radial" cx="0" cy="0" r="1" gradientUnits="userSpaceOnUse" gradientTransform="translate(30.8 159.129) scale(174.336 174.336)">
<stop stop-color="#0099FF"/>
<stop offset="0.6098" stop-color="#A033FF"/>
<stop offset="0.9348" stop-color="#FF5280"/>
<stop offset="1" stop-color="#FF7061"/>
</radialGradient>
<clipPath id="clip0">
<rect width="80" height="80" fill="white" transform="scale(2)"/>
</clipPath>
<clipPath id="clip1">
<rect width="80" height="80" fill="white" transform="scale(2)"/>
</clipPath>
</defs>
</svg>
